<?xml version="1.0" encoding="UTF-8"?>
<svg id="ICONE_COULEURS" xmlns="http://www.w3.org/2000/svg" viewBox="0 0 1067.81 996.45">
  <defs>
    <style>
      .cls-1 {
        fill: #f3f3f3;
      }

      .cls-2 {
        fill: #cccccc;
      }

      .cls-3 {
        fill: #d46559;
      }
    </style>
  </defs>
  <g>
    <path class="cls-1" d="M625.89,996.45c-4.75-2.36-10.12-3.95-14.16-7.2-28.1-22.55-51-48.88-60.99-84.65-4.77-17.07.22-31.36,11.23-43.95,16.06-18.36,32.72-36.19,48.91-54.44,33.73-38.01,66.54-76.67,88.9-122.97,18.45-38.22,16.93-76.8,1.89-115.22-10.77-27.51-23.6-54.2-34.65-81.6-4.29-10.64-5.91-22.33-9.33-33.35-2.31-7.44-5.63-14.56-8.51-21.82.62-.46,1.23-.92,1.85-1.38,6.82,9.74,14.61,18.96,20.24,29.34,7.35,13.55,12.84,28.09,19.4,42.08,7.51,16.04,15.56,31.84,22.94,47.94,14.34,31.26,18.04,64.64,14.45,98.14-2.91,27.11-15.45,51.5-30.67,74.24-30.6,45.73-67.96,85.5-107.53,123.44-8.81,8.45-16.66,18.04-24.03,27.8-8.44,11.17-7.98,23.84-2.24,35.99,14.93,31.59,33.73,60.51,60.22,83.84.79.7,1.94.99,2.92,1.48-.28.76-.56,1.52-.84,2.28Z"/>
    <path class="cls-2" d="M580.24,580.18c2.71-9.37,5.47-18.73,8.11-28.12,7.65-27.21,15.7-54.31,22.74-81.68,5.44-21.11,11.21-42.36,13.8-63.92,2-16.68.39-34.06-1.65-50.88-1.62-13.36-14.45-18.1-28.28-15.29-15.37,3.13-24.31,14.42-31.45,26.75-15.44,26.66-25.05,55.4-28.88,86.14-1.96,15.76-6.26,31.23-8.1,46.99-1.4,11.98-.42,24.22-.83,36.33-.15,4.55-1.22,9.07-3.33,13.62-.61-5.01-1.8-10.02-1.72-15.01.36-22.1-.1-44.3,1.95-66.26,3.32-35.63,7.85-71.27,26.44-103.08,10.16-17.4,20.42-35.36,40.53-42.77,26.24-9.66,44.89-1.55,50.25,27.33,5.31,28.62,2.56,56.05-4.7,84.33-10.51,40.93-26.66,79.74-40.06,119.57-3.07,9.13-8.02,17.63-12.1,26.42-.91-.16-1.82-.31-2.73-.47Z"/>
    <path class="cls-1" d="M533.5,373.8c-19.12-21.42-43.01-32.96-70.35-38.1-11-2.07-19.46,3.1-25.84,11.47-7.53,9.89-7.08,20.43-.29,30.52,12.24,18.2,23.94,36.8,42.61,49.67,8.73,6.01,16.37,13.59,25.4,21.21-2.09.11-4.08.85-5.29.18-26.87-14.81-54.79-28.37-72.77-54.86-10.17-14.98-16.81-30.91-11.46-49.74,4.68-16.48,24.71-29.84,41.44-26.15,28.91,6.39,53.51,19.96,70.55,45.07,2.29,3.38,4.01,7.14,6,10.73Z"/>
    <path class="cls-1" d="M373.28,732.95c-3.14,13.63-6.67,27.19-9.33,40.91-2.76,14.21-5.2,28.52-6.8,42.9-1.37,12.21-1.3,24.59-1.95,36.89-2.09,39.84,15.06,72.68,37.56,103.59,5.15,7.08,10.32,14.15,15.48,21.23-.65.66-1.29,1.33-1.94,1.99-8.74-7.81-18.7-14.64-25.94-23.66-11.36-14.16-22.18-29.1-30.69-45.07-5.31-9.98-6.38-22.36-8.55-33.81-1.4-7.4-2.53-15.21-1.7-22.6,2.31-20.64,4.02-41.58,9.12-61.6,5.36-21.07,14.35-41.21,21.76-61.76.99.33,1.98.67,2.98,1Z"/>
    <path class="cls-1" d="M514.2,567.36c-6.71,9.52-14.33,18.53-19.96,28.65-22.99,41.31-51.52,79.83-64.5,126.26-6.99,25.02-9.43,50.22-3.98,75.93.85,4,.12,8.33.12,14.54-12.55-7.93-12.03-19.05-13.67-28.8-6.73-39.82,6.14-75.44,23.57-110.32,18.66-37.35,42.58-70.91,70.19-102.02,1.56-1.76,3.32-3.34,5.06-4.93.39-.35,1.09-.36,1.64-.52.51.4,1.02.81,1.53,1.21Z"/>
    <path class="cls-1" d="M415.57,668.75c-2-2.53-4.86-4.76-5.88-7.64-10.14-28.54-15.65-57.73-10.07-88.03,1.91-10.39,3.79-21.06,7.83-30.69,4.01-9.54,12.35-15.5,23.63-14.67,5.03.37,9.74,1.62,9.56,8.58-.17,6.56-1.06,12.67-8.5,14.33-14.66,3.26-22.21,10.66-23.5,25.04-1.02,11.39-1.84,22.86-1.74,34.28.15,17.93,2.04,35.67,9.31,52.41.72,1.65.83,3.57,1.22,5.37-.62.34-1.24.68-1.86,1.02Z"/>
    <path class="cls-1" d="M606.83,585.3c2.72-36.32,12.13-67.31,40.08-90.25,4.99,14.75-19.31,70.58-40.08,90.25Z"/>
    <path class="cls-1" d="M491.77,456.75c-9.42,21.85-20.65,42.88-27.54,65.25-6.96,22.61-10.12,46.51-5.37,70.62-.81.07-1.62.14-2.44.21-1.14-6.8-3.06-13.58-3.27-20.41-.48-16.24-.81-32.54,0-48.76,1.11-22.1,13.65-58.6,38.61-66.93Z"/>
    <path class="cls-2" d="M388.2,603.44c-13.91,13.52-20.21,31.05-23.86,49.24-5.04,25.12,4.12,41.3,27.48,53.19,3.85,1.96,7.16,4.97,10.72,7.49-.83,1.33-1.65,2.66-2.48,3.98-7.83-4.56-15.75-8.96-23.47-13.7-16.19-9.93-26.63-23.88-24.72-43.48,2.27-23.32,9.07-44.9,32.01-56.97.98-.52,2.17-.64,3.26-.95.34.41.69.81,1.06,1.2Z"/>
    <path class="cls-1" d="M631.76,722.58c-6.57-8.7-14.26-16.77-19.5-26.2-16.97-30.53-26.99-52.27-22.81-96.96,5.91,43.84,30.62,80.64,44.55,121.47-.75.56-1.49,1.12-2.24,1.68Z"/>
    <path d="M690.25,603.6c-22.47,11.88-45.33,8.79-67.72-1.29,22.25-11.6,44.98-15.84,67.72,1.29Z"/>
    <path class="cls-2" d="M669.17,689.43c-4.47-23.15-18.22-34.26-36.77-40.97-4.66-1.69-8.94-4.43-15.23-7.62,24.42-10.33,58.97,8.72,52,48.59Z"/>
    <path class="cls-1" d="M516.57,561.18c1.87-2.48,3.74-4.96,5.61-7.45.76.6,1.52,1.2,2.28,1.81-2.03,2.36-4.06,4.72-6.08,7.08-.6-.48-1.2-.96-1.81-1.44Z"/>
    <path class="cls-2" d="M387.14,602.24c.94-.61,1.88-1.21,2.83-1.82.22.32.45.64.67.97-.81.68-1.62,1.37-2.44,2.05-.37-.39-.72-.79-1.06-1.2Z"/>
  </g>
  <path class="cls-3" d="M579.67,291.31c15.44-23.13,29.96-44.66,44.25-66.34,14.37-21.81,29.74-42.94,38.62-68.03,10.93-30.89,14.35-61.83,4.75-93.56-1.51-4.99-3.39-9.98-5.92-14.52-11.94-21.46-30.16-26.63-52.9-18.14-31.07,11.61-46.03,38.61-56.73,68.19-1.49,4.11-2.5,8.38-3.71,12.48-7.4-6.39-14.2-11.89-20.57-17.85-11.45-10.71-24.6-13.79-38.51-6.79-14.66,7.38-22.52,20.16-22.78,36.86-.26,15.91,4.58,30.67,10.5,45.27,14.12,34.88,32.37,67.16,58.69,94.37,8.74,9.03,18.27,17.3,27.44,25.91-.32.93-.64,1.86-.96,2.79-9.77-2.16-19.74-3.66-29.27-6.59-31.56-9.7-56.37-29.46-74.64-56.17-11.22-16.4-17.17-35.78-20.35-55.95-10.34-65.58,34.51-139.69,96.97-163.16,57.86-21.73,125.73-6.47,161.39,43.62,14.27,20.05,22.33,42.16,24.86,66.84,5.42,52.76-12.46,96.19-50.89,131.63-23.41,21.59-52.57,31.63-82.79,39.1-1.58.39-3.33.05-7.45.05Z"/>
</svg>