<?xml version="1.0" encoding="UTF-8"?>
<svg id="LOGO_SEC._ROSE" xmlns="http://www.w3.org/2000/svg" viewBox="0 0 1067.81 996.45">
  <defs>
    <style>
      .cls-1 {
        fill: #d46559;
      }
    </style>
  </defs>
  <g>
    <path class="cls-1" d="M212.7,799.68c0,9.06,0,18.15,0,27.25,0,8.52-5.02,12.43-10.65,14.13-8.96,2.72-18.19,2.84-27.2.15-5.11-1.53-8.96-4.88-10.49-10.31-.19-.68-.34-1.4-.35-2.11-.4-22.47-.76-44.94-1.17-67.41-.37-20.03-.77-40.06-1.21-60.09-.01-.61-.44-1.28-.84-1.8-1.4-1.81-3.11-3.42-4.27-5.37-1.51-2.53-1.12-4.03.86-6.22,3.81-4.23,8.7-6.63,13.99-8.45,9.31-3.19,18.93-4.23,28.7-4.1,11.53.16,22.99,1.03,34.31,3.33,10.85,2.21,21.05,6.06,29.73,13.12,4.48,3.65,7.74,8.23,9.82,13.78,2.02,5.39,2.28,10.93,2.37,16.47.21,12.58.37,25.18.01,37.75-.4,14.07-7.2,24.6-19.47,31.41-8.42,4.67-17.61,7.01-27.18,7.68-5.56.39-11.14.51-16.96.76ZM212.53,774.46c.8-.09,1.31-.15,1.82-.21.59-.07,1.18-.12,1.76-.22,7.92-1.33,14.38-4.8,18.03-12.36,2.39-4.97,2.46-10.27,2.14-15.61-.59-9.72-1.18-19.45-1.84-29.17-.32-4.74-1.55-9.16-5.95-11.81-5.84-3.52-12.15-2.94-18.55-1.93.86,23.83,1.72,47.46,2.59,71.31Z"/>
    <path class="cls-1" d="M532.75,799.68c0,9.02-.01,18.11,0,27.21.02,8.59-5.08,12.48-10.62,14.16-9.03,2.75-18.32,2.87-27.39.13-5.02-1.51-8.82-4.88-10.32-10.23-.19-.68-.35-1.4-.36-2.1-.4-22.14-.77-44.28-1.17-66.42-.37-20.36-.78-40.72-1.21-61.08-.01-.61-.41-1.3-.82-1.81-1.38-1.75-3.06-3.3-4.21-5.18-1.62-2.64-1.23-4.26.87-6.56,3.79-4.15,8.63-6.53,13.85-8.32,9.38-3.21,19.05-4.26,28.9-4.1,11.46.18,22.86,1.04,34.11,3.33,10.86,2.21,21.05,6.05,29.74,13.1,4.54,3.69,7.83,8.33,9.91,13.95,2,5.39,2.22,10.94,2.31,16.49.21,12.52.36,25.04,0,37.55-.4,14.07-7.17,24.61-19.43,31.43-8.42,4.68-17.6,7.02-27.18,7.7-5.56.4-11.15.51-17,.76ZM532.58,774.45c1.29-.15,2.39-.25,3.48-.42,7.94-1.27,14.41-4.74,18.09-12.27,2.39-4.89,2.51-10.14,2.2-15.41-.58-9.86-1.19-19.71-1.87-29.56-.39-5.62-2.27-10.41-7.93-12.77-5.39-2.25-10.91-1.79-16.56-.86.86,23.78,1.72,47.46,2.59,71.3Z"/>
    <path class="cls-1" d="M847.27,799.68c0,9.06,0,18.15,0,27.24,0,8.52-5.02,12.43-10.65,14.14-8.96,2.72-18.19,2.84-27.2.15-5.11-1.53-8.96-4.88-10.49-10.31-.19-.68-.34-1.4-.35-2.11-.4-22.47-.76-44.94-1.17-67.41-.37-20.03-.77-40.06-1.21-60.09-.01-.61-.44-1.28-.84-1.8-1.4-1.81-3.11-3.42-4.27-5.37-1.51-2.53-1.12-4.03.86-6.22,3.81-4.23,8.7-6.63,13.99-8.45,9.31-3.19,18.93-4.23,28.7-4.1,11.53.16,22.99,1.03,34.31,3.33,10.85,2.21,21.05,6.06,29.73,13.12,4.48,3.65,7.74,8.23,9.82,13.78,2.02,5.39,2.28,10.93,2.37,16.47.21,12.58.37,25.18.01,37.75-.4,14.07-7.2,24.6-19.47,31.41-8.42,4.67-17.6,7.01-27.18,7.68-5.56.39-11.14.51-16.96.76ZM847.1,774.47c.83-.11,1.34-.17,1.85-.23.59-.07,1.18-.11,1.76-.21,7.92-1.35,14.37-4.81,18-12.39,2.36-4.91,2.45-10.15,2.14-15.42-.58-9.79-1.19-19.58-1.85-29.37-.31-4.52-1.43-8.8-5.48-11.46-5.92-3.89-12.43-3.27-19.01-2.23.87,23.85,1.73,47.48,2.59,71.31Z"/>
    <path class="cls-1" d="M438.03,758.94c-.24,18.84-4.51,36.58-14.18,52.8-7.62,12.78-17.62,23.17-31.91,28.45-15.72,5.81-30.51,3.45-43.98-6.34-13.99-10.16-22.31-24.34-27.62-40.47-2.8-8.51-4.23-17.28-4.84-26.22-1.05-15.34.56-30.32,5.65-44.83,5.18-14.78,13.08-27.77,25.7-37.47,16.85-12.94,38.12-13.57,55.76-1.7,11.41,7.67,19.33,18.26,25.24,30.47,4.69,9.68,7.66,19.9,9.01,30.56.62,4.89.8,9.84,1.17,14.76ZM393.94,757.74c0-4.67.16-9.36-.03-14.02-.4-9.73-1.78-19.34-4.38-28.74-1.45-5.25-3.18-10.41-6.52-14.82-3.76-4.98-8.54-5.04-12.09.09-1.95,2.82-3.54,5.99-4.73,9.21-5.03,13.74-6.32,28.13-6.65,42.6-.18,7.95.26,15.93.74,23.88.55,9.25,2.06,18.39,4.85,27.24,1.52,4.81,3.27,9.57,6.89,13.32,1.43,1.47,3.09,2.41,5.24,2.27,3.2-.2,5.31-2.25,6.56-4.77,2.18-4.37,4.31-8.85,5.64-13.52,3.99-13.95,4.93-28.31,4.48-42.75Z"/>
    <path class="cls-1" d="M683.32,704.28c4.34,13.58,4.85,27.39,5.6,41.29,6.93,0,13.64-.03,20.35,0,5.02.03,9.98.58,14.69,2.37,2.69,1.02,5.44,2.11,6.86,4.94,2.05,4.1.48,8.85-3.67,11.33-5.13,3.07-10.86,3.85-16.63,4.11-6.32.29-12.65.12-18.98.14-.65,0-1.3,0-2.31,0,1,15.16.92,30.2-.57,45.46.73,0,1.41.02,2.1,0,12.25-.49,24.49-1,36.74-1.47,6.67-.26,13.29-.13,19.52,2.73,6.33,2.91,9,10.03,5.59,15.5-2.41,3.87-6.33,5.97-10.63,6.93-4.85,1.08-9.79,1.99-14.74,2.32-11.76.78-23.55,1.17-35.33,1.74-9.01.44-18.02,1.1-27.04,1.34-7.07.19-14.07-.41-20.18-4.64-3.09-2.13-4.77-5.11-4.69-8.83.22-9.81.74-19.62.89-29.44.17-10.54.2-21.09.04-31.63-.12-8.17-.47-16.34-1.02-24.48-.53-7.87-1.33-15.73-2.26-23.56-.92-7.76-2.16-15.47-3.2-23.21-.32-2.38-.88-4.85-.57-7.18.68-5.09,4.24-8.2,8.81-9.65,4.08-1.3,8.42-2.09,12.69-2.42,12.94-.97,25.89-1.64,38.85-2.36,8.75-.48,17.5-1.11,26.26-1.17,7.68-.05,15.36.57,22.32,4.48,3.52,1.98,5.57,4.93,6.21,8.85.67,4.12-.85,7.32-4.33,9.63-4.48,2.98-9.57,3.84-14.78,4.18-10.65.69-21.3,1.27-31.95,1.88-3.49.2-6.97.34-10.46.52-1.24.06-2.48.17-4.19.29Z"/>
  </g>
  <g>
    <g>
      <path class="cls-1" d="M594.77,644.45c-2.78-1.38-5.93-2.32-8.3-4.22-16.46-13.21-29.88-28.64-35.73-49.59-2.79-10,.13-18.38,6.58-25.75,9.41-10.76,19.17-21.2,28.66-31.89,19.76-22.27,38.99-44.92,52.08-72.04,10.81-22.39,9.92-44.99,1.11-67.5-6.31-16.12-13.83-31.75-20.3-47.81-2.51-6.23-3.46-13.08-5.47-19.54-1.35-4.36-3.3-8.53-4.98-12.79.36-.27.72-.54,1.08-.81,4,5.7,8.56,11.11,11.86,17.19,4.3,7.94,7.53,16.46,11.37,24.66,4.4,9.4,9.11,18.65,13.44,28.09,8.4,18.32,10.57,37.87,8.47,57.5-1.7,15.89-9.05,30.17-17.97,43.5-17.93,26.79-39.82,50.09-63,72.32-5.16,4.95-9.76,10.57-14.08,16.29-4.94,6.55-4.68,13.97-1.31,21.09,8.75,18.51,19.76,35.45,35.28,49.12.46.41,1.14.58,1.71.86-.16.45-.33.89-.49,1.34Z"/>
      <path class="cls-1" d="M568.03,400.57c1.59-5.49,3.2-10.97,4.75-16.48,4.48-15.94,9.2-31.82,13.32-47.85,3.18-12.37,6.57-24.82,8.09-37.45,1.17-9.77.23-19.96-.97-29.81-.95-7.82-8.46-10.6-16.57-8.96-9.01,1.83-14.24,8.45-18.43,15.67-9.05,15.62-14.68,32.46-16.92,50.47-1.15,9.23-3.67,18.3-4.75,27.53-.82,7.02-.25,14.19-.49,21.28-.09,2.67-.71,5.31-1.95,7.98-.36-2.93-1.05-5.87-1.01-8.8.21-12.95-.06-25.95,1.14-38.82,1.94-20.88,4.6-41.75,15.49-60.39,5.96-10.19,11.96-20.72,23.75-25.06,15.37-5.66,26.3-.91,29.44,16.01,3.11,16.77,1.5,32.84-2.75,49.4-6.15,23.98-15.62,46.72-23.47,70.05-1.8,5.35-4.7,10.33-7.09,15.48-.53-.09-1.07-.18-1.6-.28Z"/>
      <path class="cls-1" d="M540.64,279.66c-11.2-12.55-25.2-19.31-41.21-22.32-6.44-1.21-11.4,1.82-15.14,6.72-4.41,5.79-4.15,11.97-.17,17.88,7.17,10.67,14.02,21.56,24.97,29.1,5.11,3.52,9.59,7.96,14.88,12.42-1.22.06-2.39.5-3.1.11-15.74-8.68-32.1-16.62-42.64-32.14-5.96-8.78-9.85-18.11-6.71-29.14,2.74-9.65,14.48-17.49,24.28-15.32,16.94,3.74,31.35,11.69,41.33,26.41,1.34,1.98,2.35,4.18,3.51,6.29Z"/>
      <path class="cls-1" d="M446.77,490.07c-1.84,7.99-3.91,15.93-5.47,23.97-1.61,8.32-3.04,16.71-3.99,25.13-.8,7.16-.76,14.4-1.14,21.61-1.23,23.34,8.82,42.58,22.01,60.69,3.02,4.15,6.04,8.29,9.07,12.44-.38.39-.76.78-1.14,1.16-5.12-4.58-10.96-8.58-15.2-13.86-6.65-8.3-12.99-17.05-17.98-26.41-3.11-5.84-3.74-13.1-5.01-19.81-.82-4.33-1.48-8.91-1-13.24,1.35-12.09,2.36-24.36,5.34-36.09,3.14-12.34,8.41-24.14,12.75-36.18.58.2,1.16.39,1.74.59Z"/>
      <path class="cls-1" d="M529.34,393.06c-3.93,5.58-8.4,10.86-11.7,16.79-13.47,24.2-30.18,46.77-37.79,73.97-4.1,14.66-5.53,29.42-2.33,44.48.5,2.34.07,4.88.07,8.52-7.35-4.65-7.05-11.16-8.01-16.87-3.94-23.33,3.6-44.2,13.81-64.63,10.93-21.89,24.95-41.55,41.12-59.77.91-1.03,1.95-1.96,2.97-2.89.23-.21.64-.21.96-.31.3.24.6.47.89.71Z"/>
      <path class="cls-1" d="M471.55,452.46c-1.17-1.48-2.85-2.79-3.45-4.48-5.94-16.72-9.17-33.82-5.9-51.57,1.12-6.08,2.22-12.34,4.59-17.98,2.35-5.59,7.24-9.08,13.84-8.6,2.95.22,5.71.95,5.6,5.03-.1,3.85-.62,7.42-4.98,8.39-8.59,1.91-13.01,6.25-13.77,14.67-.6,6.67-1.08,13.39-1.02,20.08.09,10.5,1.2,20.9,5.45,30.71.42.97.48,2.09.71,3.14-.36.2-.73.4-1.09.6Z"/>
      <path class="cls-1" d="M583.6,403.57c1.59-21.28,7.11-39.43,23.48-52.88,2.93,8.64-11.31,41.35-23.48,52.88Z"/>
      <path class="cls-1" d="M516.19,328.26c-5.52,12.8-12.1,25.12-16.14,38.23-4.08,13.25-5.93,27.25-3.15,41.38-.48.04-.95.08-1.43.13-.67-3.98-1.8-7.96-1.91-11.96-.28-9.52-.47-19.06,0-28.56.65-12.95,8-34.33,22.62-39.21Z"/>
      <path class="cls-1" d="M455.52,414.2c-8.15,7.92-11.84,18.19-13.98,28.85-2.95,14.71,2.41,24.2,16.1,31.16,2.25,1.15,4.2,2.91,6.28,4.39-.48.78-.97,1.56-1.45,2.33-4.59-2.67-9.23-5.25-13.75-8.03-9.48-5.82-15.6-13.99-14.48-25.47,1.33-13.66,5.31-26.31,18.75-33.38.58-.3,1.27-.38,1.91-.56.2.24.41.48.62.7Z"/>
      <path class="cls-1" d="M598.21,484c-3.85-5.09-8.35-9.82-11.42-15.35-9.94-17.88-15.82-30.62-13.36-56.8,3.46,25.69,17.94,47.24,26.1,71.17-.44.33-.87.66-1.31.99Z"/>
      <path class="cls-1" d="M632.48,414.29c-13.16,6.96-26.56,5.15-39.68-.76,13.04-6.8,26.35-9.28,39.68.76Z"/>
      <path class="cls-1" d="M620.13,464.58c-2.62-13.56-10.68-20.07-21.55-24-2.73-.99-5.24-2.59-8.92-4.46,14.31-6.05,34.55,5.11,30.47,28.47Z"/>
      <path class="cls-1" d="M530.73,389.44c1.09-1.45,2.19-2.91,3.28-4.36.45.35.89.71,1.34,1.06-1.19,1.38-2.38,2.76-3.56,4.15-.35-.28-.71-.56-1.06-.84Z"/>
      <path class="cls-1" d="M454.9,413.49c.55-.36,1.1-.71,1.66-1.07.13.19.26.38.39.57-.48.4-.95.8-1.43,1.2-.21-.23-.42-.46-.62-.7Z"/>
    </g>
    <path class="cls-1" d="M567.69,231.33c9.05-13.55,17.55-26.16,25.92-38.87,8.42-12.78,17.42-25.16,22.63-39.85,6.41-18.1,8.41-36.23,2.78-54.82-.88-2.92-1.99-5.85-3.47-8.51-6.99-12.57-17.67-15.6-30.99-10.63-18.2,6.8-26.97,22.62-33.24,39.95-.87,2.41-1.47,4.91-2.17,7.31-4.34-3.74-8.32-6.97-12.05-10.46-6.71-6.28-14.41-8.08-22.56-3.98-8.59,4.32-13.19,11.81-13.35,21.59-.15,9.32,2.69,17.97,6.15,26.52,8.27,20.43,18.96,39.35,34.38,55.29,5.12,5.29,10.71,10.13,16.08,15.18-.19.55-.37,1.09-.56,1.64-5.72-1.26-11.56-2.15-17.15-3.86-18.49-5.68-33.03-17.26-43.73-32.91-6.57-9.61-10.06-20.96-11.92-32.78-6.06-38.42,20.22-81.84,56.81-95.59,33.9-12.73,73.66-3.79,94.55,25.56,8.36,11.75,13.08,24.7,14.57,39.16,3.17,30.91-7.3,56.35-29.81,77.12-13.71,12.65-30.8,18.53-48.5,22.91-.92.23-1.95.03-4.37.03Z"/>
  </g>
</svg>